<?xml version="1.0" encoding="UTF-8" standalone="no"?>
<svg
   xmlns:dc="http://purl.org/dc/elements/1.1/"
   xmlns:cc="http://creativecommons.org/ns#"
   xmlns:rdf="http://www.w3.org/1999/02/22-rdf-syntax-ns#"
   xmlns:svg="http://www.w3.org/2000/svg"
   xmlns="http://www.w3.org/2000/svg"
   height="33.5"
   width="37"
   id="svg2"
   xml:space="preserve"
   enable-background="new 0 0 1378 1109.6"
   viewBox="0 0 37 33.500001"
   y="0px"
   x="0px"
   version="1.1">
  <style>
    svg { cursor: pointer; }
  </style>
		<g
     class="social-media-icon linked-in"><rect
       x="1"
       y="10.7"
       width="7.2"
       height="22.8"
       style="fill: white;"/><path
       d="m 27.8,10.5 c -4.1,0 -6.7,2.2 -7.2,3.8 l 0,-3.6 -8.1,0 c 0.1,1.9 0,22.8 0,22.8 l 8.1,0 0,-12.3 c 0,-0.7 0,-1.4 0.2,-1.9 0.6,-1.4 1.7,-2.8 3.9,-2.8 2.8,0 4.1,2.1 4.1,5.2 l 0,11.8 8.2,0 0,-12.7 c -0.1,-7 -4.1,-10.3 -9.2,-10.3 z"
       id="path146"
       style="fill: white;"/><path
       d="m 4.4,0 c -2.7,0 -4.4,1.7 -4.4,4 0,2.2 1.7,3.9 4.3,3.9 l 0.1,0 c 2.7,0 4.4,-1.7 4.4,-4 -0.1,-2.2 -1.7,-3.9 -4.4,-3.9 z"
       style="fill: white;"/>
     </g>
</svg>
