<?xml version="1.0" encoding="UTF-8" standalone="no"?>
<svg
   xmlns:dc="http://purl.org/dc/elements/1.1/"
   xmlns:cc="http://creativecommons.org/ns#"
   xmlns:rdf="http://www.w3.org/1999/02/22-rdf-syntax-ns#"
   xmlns:svg="http://www.w3.org/2000/svg"
   xmlns="http://www.w3.org/2000/svg"
   height="31.4"
   width="37.5"
   id="svg2"
   xml:space="preserve"
   enable-background="new 0 0 1378 1109.6"
   viewBox="0 0 37.5 31.4"
   y="0px"
   x="0px"
   version="1.1">
	<path
     class="social-media-icon twitter"
     d="M 36.2,0.60002441 C 34.7,1.5000244 33.1,2.2000244 31.3,2.5000244 29.9,1.0000244 27.9,2.4414063e-5 25.7,2.4414063e-5 21.5,2.4414063e-5 18,3.5000244 18,7.9000244 c 0,0.6 0.1,1.2 0.2,1.8 -6.4,-0.3 -12,-3.5 -15.8,-8.2 -0.7,1.2 -1,2.5 -1,4 0,2.7 1.4,5.0999996 3.4,6.5999996 -1.3,0 -2.4,-0.4 -3.5,-1 l 0,0.1 c 0,3.8 2.6,7 6.2,7.7 -0.6,0.2 -1.3,0.3 -2,0.3 -0.5,0 -1,0 -1.4,-0.1 1,3.1 3.8,5.4 7.2,5.5 -2.6,2.1 -5.9,3.4 -9.5,3.4 -0.6,0 -1.2,0 -1.8,-0.1 3.4,2.2 7.4,3.5 11.8,3.5 14.1,0 21.9,-12 21.9,-22.3999996 0,-0.3 0,-0.7 0,-1 1.5,-1.1 2.8,-2.5 3.8,-4.1 -1.4,0.6 -2.9,1.1 -4.4,1.2 1.3,-1.1 2.5,-2.6 3.1,-4.49999999 z"
     style="fill: white;"
  />
</svg>
